<?xml version="1.0" encoding="UTF-8" standalone="no"?>
<!-- Created with Inkscape (http://www.inkscape.org/) -->

<svg
   width="78.6mm"
   height="56.1mm"
   version="1.1"
   viewBox="0 0 78.6 56.1"
   id="svg22"
   sodipodi:docname="fairydoor.svg"
   inkscape:version="1.3.2 (1:1.3.2+202311252150+091e20ef0f)"
   xmlns:inkscape="http://www.inkscape.org/namespaces/inkscape"
   xmlns:sodipodi="http://sodipodi.sourceforge.net/DTD/sodipodi-0.dtd"
   xmlns="http://www.w3.org/2000/svg"
   xmlns:svg="http://www.w3.org/2000/svg">
  <defs
     id="defs22" />
  <sodipodi:namedview
     id="namedview22"
     pagecolor="#ffffff"
     bordercolor="#000000"
     borderopacity="0.25"
     inkscape:showpageshadow="2"
     inkscape:pageopacity="0.0"
     inkscape:pagecheckerboard="0"
     inkscape:deskcolor="#d1d1d1"
     inkscape:document-units="mm"
     showgrid="false"
     inkscape:zoom="2.4078079"
     inkscape:cx="132.48565"
     inkscape:cy="129.16313"
     inkscape:window-width="1920"
     inkscape:window-height="941"
     inkscape:window-x="0"
     inkscape:window-y="0"
     inkscape:window-maximized="1"
     inkscape:current-layer="svg22" />
  <g
     fill="#b1cfb0"
     stroke-width="0.823"
     id="g3"
     transform="translate(-29.9,-26.8)">
    <path
       d="m 79.8,65.4 3.04,3.11 -2.39,1.28 z"
       style="paint-order:stroke markers fill"
       id="path1" />
    <path
       d="m 81,56.5 7.19,0.0756 1.88,4.83 -0.685,4.83 -5.72,2.12 -3.66,-3.85 z"
       style="paint-order:stroke markers fill"
       id="path2" />
    <path
       d="m 80.9,78.4 v -7.63 l 2.64,-2.23 5.15,-0.694 2.39,5.94 -2.2,4.86 z"
       style="paint-order:stroke markers fill"
       id="path3" />
  </g>
  <path
     style="fill:#060606;fill-opacity:0.269409;stroke-width:1.67931;paint-order:stroke markers fill"
     d="m 51.61445,38.35178 1.803242,1.999832 6.041559,-1.649143 0.218482,-2.556558 -5.236734,0.335667 z"
     id="path29" />
  <path
     d="m 35,24.4 5.28,-1.71 0.303,29.2 h -4.84 z"
     fill="#91601c"
     style="stroke-width:0.823;paint-order:stroke markers fill"
     id="path4" />
  <path
     d="m 35.3,25 -6.2,0.297 1.14,26.1 5.42,0.03 z"
     fill="#dc9f4b"
     style="stroke-width:0.823;paint-order:stroke markers fill"
     id="path5" />
  <path
     d="m 40.6,25.1 h 3.91 l -0.0015,26.6 -3.94,0.0049 z"
     fill="#c17f25"
     style="stroke-width:0.823;paint-order:stroke markers fill"
     id="path6" />
  <path
     d="m 44.8,26.1 4.95,0.199 -0.0441,25.4 -5.12,-0.238 z"
     fill="#c17f25"
     style="stroke-width:0.823;paint-order:stroke markers fill"
     id="path7" />
  <g
     fill="#b1cfb0"
     stroke-width="0.823"
     id="g14"
     transform="translate(-29.9,-26.8)">
    <path
       d="m 59.7,76.9 -0.684,-9.39 -8.39,-0.442 -1.76,8.9 1.98,1.94 z"
       style="paint-order:stroke markers fill"
       id="path9" />
    <path
       d="m 59.4,66.6 -9.02,-0.584 -1.79,-6.5 4.89,-3.93 5.18,1.64 z"
       style="paint-order:stroke markers fill"
       id="path10" />
    <path
       d="m 58.1,56.7 6.47,-6.13 -0.526,-6.16 -6.61,0.202 -5.12,3.67 2.05,6.58 z"
       style="paint-order:stroke markers fill"
       id="path11" />
    <path
       d="m 65.5,50.2 -1.24,-8.97 8.55,0.199 -1.81,8.61 z"
       style="paint-order:stroke markers fill"
       id="path12" />
    <path
       d="m 71.5,49.4 1.84,-4.81 7.02,2.51 -0.312,3.84 -4.4,1.35 -3.93,-1.32 z"
       style="paint-order:stroke markers fill"
       id="path13" />
    <path
       d="m 79.1,51.8 2.67,3.85 3.94,-0.769 0.374,-5.06 -4.96,-0.807 z"
       style="paint-order:stroke markers fill"
       id="path14" />
  </g>
  <path
     d="m 45.2,27.3 c -0.603,-0.0242 -1.29,0.379 -1.57,0.818 -0.278,0.439 -0.253,0.865 -0.0504,1.34 0.137,0.324 0.289,0.711 0.522,0.991 l -1.68,-0.109 0.0986,1.26 1.69,0.309 c -0.248,0.209 -0.46,0.495 -0.647,0.737 -0.318,0.411 -0.452,0.816 -0.296,1.31 0.156,0.495 0.72,1.06 1.31,1.19 0.589,0.131 1.41,-0.198 1.77,-0.548 0.358,-0.35 0.348,-0.768 0.501,-1.5 -0.689,0.564 -0.668,0.82 -1.05,0.877 -0.377,0.0576 -1.06,0.324 -1.23,0.0177 -0.167,-0.306 -0.0644,-0.766 0.211,-1.11 0.216,-0.267 0.691,-0.474 1.23,-0.656 l 2.85,0.521 0.0504,1.76 1.57,0.188 -0.0408,-4.93 h -0.725 l -0.88,-0.0872 0.0438,1.07 -2.89,-0.188 c -0.53,-0.343 -1,-0.697 -1.16,-1.04 -0.179,-0.4 -0.16,-0.87 0.0801,-1.12 0.24,-0.253 0.831,0.179 1.18,0.332 0.35,0.152 0.264,0.394 0.786,1.12 0.0384,-0.744 0.156,-1.14 -0.101,-1.58 -0.257,-0.43 -0.964,-0.959 -1.57,-0.983 z"
     fill="#675230"
     stroke-width="0.823"
     style="paint-order:stroke markers fill"
     id="path15" />
  <path
     d="m 44.9,43.8 c -0.233,-0.0025 -0.471,0.0499 -0.683,0.177 -0.425,0.255 -0.835,0.904 -0.797,1.43 0.0306,0.421 0.19,0.776 0.452,0.985 l -0.834,-0.0418 -0.151,0.744 1.42,0.318 c -0.255,0.142 -0.497,0.378 -0.549,0.692 -0.0615,0.374 0.144,0.882 0.5,1.14 0.356,0.257 1.03,0.309 1.38,0.13 0.354,-0.179 0.525,-0.583 0.512,-0.852 -0.013,-0.269 -0.169,-0.397 -0.372,-0.499 -0.203,-0.102 -0.318,-0.308 -0.745,0 0.346,0.0327 0.379,0.0581 0.59,0.253 0.211,0.195 0.13,0.337 -0.0552,0.477 -0.185,0.141 -0.747,0.0836 -0.903,-0.142 -0.156,-0.226 0.0255,-0.5 0.149,-0.716 0.0721,-0.126 0.284,-0.19 0.43,-0.273 l 3.29,0.738 0.155,1.24 h 1.31 l -0.0117,-3.67 0.0867,-1.14 -1.32,-0.242 -0.54,2.06 -2.88,-0.144 c -0.499,-0.124 -0.999,-0.593 -1.04,-0.982 -0.0451,-0.413 0.236,-0.752 0.564,-0.857 0.328,-0.104 0.8,0.0792 0.967,0.377 0.167,0.297 -0.0311,0.616 -0.177,0.993 0.465,-0.0908 0.693,-0.658 0.671,-1.07 -0.0221,-0.415 -0.372,-0.784 -0.759,-0.968 -0.193,-0.0918 -0.422,-0.149 -0.655,-0.151 z"
     fill="#675230"
     stroke-width="0.823"
     style="paint-order:stroke markers fill"
     id="path16" />
  <path
     d="m 32.9,38.1 c 0.0047,0.379 -0.0201,0.678 0.0374,1.07 -0.381,0.0456 -0.607,0.103 -0.813,0.429 -0.206,0.326 -0.144,0.842 0.0512,1.21 0.195,0.364 0.471,0.741 1.03,0.751 0.555,0.0102 1.41,-0.698 1.71,-1.15 0.297,-0.456 0.439,-0.867 0.213,-1.19 -0.226,-0.323 -0.636,-0.394 -1.12,-0.184 -0.0114,-0.339 0.0501,-0.718 0,-1.03 0.696,0.0092 1.49,0.173 1.87,0.743 0.383,0.57 0.361,1.36 -0.0226,2.11 -0.384,0.742 -1.55,1.61 -2.35,1.7 -0.798,0.0911 -1.28,-0.176 -1.77,-0.747 -0.489,-0.57 -0.803,-1.81 -0.635,-2.51 0.168,-0.702 0.415,-0.901 0.88,-1.02 0.465,-0.119 0.611,-0.244 0.925,-0.179 z"
     fill="#443620"
     stroke-width="0.591"
     style="paint-order:stroke markers fill"
     id="path17" />
  <g
     transform="matrix(0.49,0,0,0.49,-14.7,-13.1)"
     stroke-width="1.68"
     id="g21">
    <path
       d="m 65.4,36.4 c 11.4,-2.13 29.6,9.73 32.8,16.7 3.25,6.95 -1.84,7.24 -5.89,8.58 -4.05,1.34 -29,7.75 -37.9,5.96 -8.9,-1.79 -11.4,0.216 -11,-6.84 0.365,-7.05 10.5,-22.3 21.9,-24.4 z"
       fill="#96ff80"
       style="paint-order:stroke markers fill"
       id="path18" />
    <path
       d="m 66.9,64.6 -6.63,1.33 -0.0994,-4.68 -5.22,3.5 -7.23,-0.968 -2.42,-3.94 3.85,-2.63 4.71,-2.31 16.3,-4.94 12.1,2.13 12,3.88 0.434,2.33 -8.18,2 -4.36,-2.51 3.58,3.57 -6.85,1.55 -3.19,-3.91 1.8,3.95 -8.95,1.52 0.47,-5.52 z"
       fill="#ceffc2"
       style="paint-order:stroke markers fill"
       id="path19" />
    <path
       d="m 66.1,53 c 0,0 -0.257,24.5 4.39,30.6 4.64,6.13 13.9,6.15 13.9,6.15 l 0.854,-7.8 -7.31,-4.25 -5.18,-26.3 z"
       fill="#afff80"
       style="paint-order:stroke markers fill"
       id="path20" />
    <path
       d="m 65.5,53.5 3.46,-2.47 4.48,0.641 2.1,10.2 -2.84,-4.92 -0.305,6.13 -2.53,-2.19 -1,1.69 -1.82,-2.24 -1.17,1.24 z"
       fill="#fcfffb"
       style="paint-order:stroke markers fill"
       id="path21" />
  </g>
  <path
     style="fill:#143b03;fill-opacity:1;stroke-width:1.86243;paint-order:stroke markers fill"
     d="m 60.620002,40.43671 c -4.3627,-2.976059 -6.31196,2.627495 -4.304621,5.570478 2.007338,2.942985 9.284151,1.599485 15.509008,5.537305 -0.519563,-5.157051 -2.472278,-14.368334 -6.304243,-15.805411 -3.831966,-1.437077 -8.464286,1.03645 -4.900144,4.697628 z"
     id="path22"
     sodipodi:nodetypes="czczc" />
  <path
     style="fill:#1f5a05;fill-opacity:1;stroke-width:2.19588;paint-order:stroke markers fill"
     d="m 62.349449,32.540338 c 2.959206,-1.618192 -2.089675,-3.958483 -5.002205,-2.464518 -2.91253,1.493964 -4.844617,4.318238 -6.623172,8.945011 4.816746,-1.983403 8.218675,-1.231304 10.637146,-2.338039 2.41847,-1.106734 3.659242,-3.242453 0.988231,-4.142454 z"
     id="path23"
     sodipodi:nodetypes="czczc" />
  <path
     style="fill:#279901;fill-opacity:1;stroke-width:1.67931;paint-order:stroke markers fill"
     d="m 60.318433,26.341911 c -0.260416,-1.107557 1.189536,-2.501293 3.154421,-1.983004 1.964885,0.518289 5.972335,4.291149 4.431377,6.615192 -2.962817,-1.266554 -7.453285,-0.05818 -8.610224,-1.65964 -1.156939,-1.601458 -0.203013,-3.037356 1.024426,-2.972548 z"
     id="path24"
     sodipodi:nodetypes="czczc" />
  <path
     style="fill:#67d73c;fill-opacity:1;stroke-width:1.67931;paint-order:stroke markers fill"
     d="m 61.33252,22.232452 c -0.636875,-0.751209 0.351822,-1.705898 -1.762525,-1.522242 -2.114347,0.183656 -4.605259,3.671002 -4.096442,4.609212 0.508816,0.938209 4.914029,1.028691 5.950386,-0.323049 1.036358,-1.35174 0.545456,-2.012713 -0.09142,-2.763921 z"
     id="path25"
     sodipodi:nodetypes="zzzzz" />
  <path
     style="fill:#060606;fill-opacity:0.26940918;stroke-width:1.67931;paint-order:stroke markers fill"
     d="m 20.50396,35.106721 0.45199,3.47599 2.584457,-0.625833 3.805217,0.973948 1.244798,-0.992405 -0.17599,-2.798649 -3.031296,0.83058 -3.737826,0.425808 z"
     id="path26" />
  <path
     style="fill:#060606;fill-opacity:0.269409;stroke-width:1.67931;paint-order:stroke markers fill"
     d="m 28.501567,45.320068 -3.013696,1.966352 -1.98352,-0.569603 -1.86505,-1.777055 -1.530672,0.840023 -0.219771,1.777486 1.957337,2.393445 6.609015,-0.659315 0.670044,-2.477574 z"
     id="path27" />
  <path
     style="fill:#060606;fill-opacity:0.269409;stroke-width:1.67931;paint-order:stroke markers fill"
     d="m 30.924201,18.839794 0.633989,2.578877 -1.562436,4.889478 3.621931,-2.823114 -0.321071,-4.403578 z"
     id="path28" />
  <path
     style="fill:#060606;fill-opacity:0.269409;stroke-width:1.67931;paint-order:stroke markers fill"
     d="m 51.769837,44.394627 0.04249,6.294811 2.62781,0.736147 3.497882,-0.6151 -0.264414,-1.816547 -3.797062,-1.498479 0.437827,-3.648543 z"
     id="path30" />
</svg>
