<?xml version="1.0" encoding="UTF-8" standalone="no"?>
<svg
   width="100mm"
   height="100mm"
   version="1.1"
   viewBox="0 0 100 100"
   id="svg16"
   sodipodi:docname="avatar.svg"
   inkscape:version="1.3.2 (1:1.3.2+202404261509+091e20ef0f)"
   xmlns:inkscape="http://www.inkscape.org/namespaces/inkscape"
   xmlns:sodipodi="http://sodipodi.sourceforge.net/DTD/sodipodi-0.dtd"
   xmlns="http://www.w3.org/2000/svg"
   xmlns:svg="http://www.w3.org/2000/svg">
  <defs
     id="defs16" />
  <sodipodi:namedview
     id="namedview16"
     pagecolor="#ffffff"
     bordercolor="#000000"
     borderopacity="0.25"
     inkscape:showpageshadow="2"
     inkscape:pageopacity="0.0"
     inkscape:pagecheckerboard="0"
     inkscape:deskcolor="#d1d1d1"
     inkscape:document-units="mm"
     inkscape:zoom="1.0490729"
     inkscape:cx="-44.32485"
     inkscape:cy="133.92777"
     inkscape:window-width="1920"
     inkscape:window-height="1011"
     inkscape:window-x="0"
     inkscape:window-y="0"
     inkscape:window-maximized="1"
     inkscape:current-layer="svg16" />
  <path
     id="path32"
     style="stroke-width:2.27429;paint-order:stroke markers fill;fill:#443c04;fill-opacity:1"
     d="M 80.122758 3.2091064 C 72.77053 3.4506358 71.203923 10.422103 71.203923 10.422103 L 73.298368 17.417542 L 85.564286 26.47797 L 75.166471 48.085437 C 75.166471 48.085437 64.109457 76.625273 69.584383 88.793547 C 71.392448 92.812236 75.56812 96.648732 80.334115 100.0001 L 96.706759 100.0001 C 95.257661 95.838043 94.125993 91.014762 94.293469 86.315662 C 94.448805 81.952308 96.953918 77.063026 100.0001 71.878817 L 100.0001 17.121952 C 94.748631 10.066755 88.625003 4.6326804 83.640373 3.5574056 C 82.341613 3.2772645 81.173076 3.1746023 80.122758 3.2091064 z " />
  <g
     id="g17"
     transform="matrix(0.82586963,0,0,0.78167261,-13.0101,-8.1409286)">
    <path
       d="m 69.592,18.014 c 16.206,-0.40199 30.721,1.7078 41.483,16.072 10.763,14.364 9.3467,48.43 2.5837,63.69 -6.7629,15.26 -26.6,21.691 -26.6,21.691 l -32.88,1.6079 c 0,0 -20.361,-13.517 -26.854,-28.069 -6.4931,-14.551 -15.344,-38.795 -5.9434,-53.508 9.4006,-14.713 32.004,-21.082 48.21,-21.484 z"
       fill="#443c04"
       stroke-width="2.8306"
       style="paint-order:stroke markers fill"
       id="path14" />
    <path
       d="m 28.701,93.411 c -0.90599,4.6714 -0.16341,18.981 2.2851,22.868 2.4485,3.8862 12.045,17.818 18.878,18.528 6.8332,0.71066 29.359,-9.3983 33.326,-13.375 3.967,-3.9767 23.082,-26.88 23.082,-26.88 0,0 2.7234,-8.9209 5.7758,-23.125 3.0525,-14.204 -13.244,-49.936 -46.777,-50.858 -33.533,-0.92206 -40.581,24.74 -40.846,38.521 -0.26444,13.781 1.4441,18.144 4.2754,34.322 z"
       fill="#ecb98a"
       stroke-width="2.8306"
       style="paint-order:stroke markers fill"
       id="path15" />
    <path
       d="m 71.825,91.03 c 0,4.624 -3.0325,8.3725 -6.7733,8.3725 -3.7408,0 -6.7733,-3.7485 -6.7733,-8.3725 0,-4.624 3.0325,-7.3272 6.7733,-7.3272 3.7408,0 6.7733,2.7032 6.7733,7.3272 z"
       fill="#433106"
       stroke-width="2.9722"
       style="paint-order:stroke markers fill"
       id="path16" />
    <ellipse
       transform="matrix(0.98374,-0.17962,0.15533,0.98786,0,0)"
       cx="20.226999"
       cy="94.850998"
       rx="4.1575999"
       ry="7.1654"
       fill="#433106"
       stroke-width="2.9388"
       style="paint-order:stroke markers fill"
       id="ellipse16" />
    <path
       d="m 107.82,84.292 c -3.7506,6.6516 -11.874,14.548 -14.714,23.963 5.3646,5.6409 13.701,-3.9408 16.308,-8.919 2.6067,-4.9781 10.508,-15.109 -1.5944,-15.044 z"
       fill="#ecc58a"
       stroke-width="2.8306"
       style="paint-order:stroke markers fill"
       id="path17" />
  </g>
  <g
     fill="#443c04"
     stroke-width="2.8306"
     id="g20"
     transform="matrix(0.82586963,0,0,0.78167261,-13.0101,-8.1409286)">
    <path
       d="M 65.211,17.704 C 47.259,15.194 30.205,28.203 22.272,40.663 14.3394,53.123 20.1139,80.539 20.1139,80.539 l 12.18,-24.725 6.2079,24.008 1.5722,-17.567 13.389,23.867 0.43336,-29.08 14.023,18.839 -0.22777,-12.587 12.668,18.823 5.1761,-6.9192 3.4273,23.117 3.5431,-3.8384 0.24709,5.4734 13.746,-11.099 c 0,0 11.871,-9.4063 10.978,-30.345 -0.893,-20.9387 -34.313,-38.293 -52.266,-40.803 z"
       style="paint-order:stroke markers fill"
       id="path18" />
    <path
       d="m 55.419,79.671 c 4.1407,-1.8808 5.7828,-4.4256 12.554,-5.6075 4.5221,0.06713 8.7597,2.5525 13.138,3.8452 l -13.64,-0.4459 z"
       fill-opacity="0.70914"
       style="paint-order:stroke markers fill"
       id="path19" />
    <path
       d="m 26.217,78.872 3.833,-1.7583 10.709,2.9574 C 36.8675,76.899 33.7441,74.9436 29.78,73.9612 27.4082,75.204 27.3611,77.2206 26.2168,78.872 Z"
       fill-opacity="0.70914"
       style="paint-order:stroke markers fill"
       id="path20" />
  </g>
  <g
     stroke-width="2.8306"
     id="g23"
     transform="matrix(0.82586963,0,0,0.78167261,-14.49524,-8.1409286)">
    <path
       d="m 42.274,116.79 c 0,0 2.5655,2.0941 4.9618,2.2932 2.3963,0.19907 8.6433,-2.3656 8.6433,-2.3656 l 1.9275,0.2929 -3.7392,1.5153 c 0,0 -4.6125,2.1266 -6.5325,2.0195 -1.92,-0.10705 -4.3085,-1.8789 -4.3085,-1.8789 z"
       fill="#f1400f"
       fill-opacity="0.50734"
       style="paint-order:stroke markers fill"
       id="path21" />
    <path
       d="m 45.65,122.43 c 0,0 1.7068,1.2772 2.5241,0.62838 -0.22095,1.012 1.2798,2.4808 0.14707,2.8276 -1.1735,-1.4542 -2.6712,-3.456 -2.6712,-3.456 z"
       fill="#f8eb90"
       fill-opacity="0.44796"
       style="paint-order:stroke markers fill"
       id="path22" />
    <path
       d="m 45.071,98.283 -1.3956,7.993 2.9926,4.1699 -1.4373,1.9744 -4.7868,-3.0977 z"
       fill="#443c04"
       fill-opacity="0.45851"
       style="paint-order:stroke markers fill"
       id="path23" />
  </g>
  <ellipse
     cx="51.465538"
     cy="74.474045"
     rx="6.6140599"
     ry="2.9835663"
     fill="#f4884c"
     fill-opacity="0.62715"
     stroke-width="1.76899"
     style="paint-order:stroke markers fill"
     id="ellipse23" />
  <g
     stroke-width="2.8306"
     id="g26"
     transform="matrix(0.82586963,0,0,0.78167261,-13.0101,-8.1409286)">
    <path
       d="m 58.949,86.972 0.41284,0.42529 4.4375,-1.9147 5.1444,-0.39556 -0.33752,-1.0332 -5.3354,0.03489 z"
       fill="#db6b9d"
       fill-opacity="0.60229"
       style="paint-order:stroke markers fill"
       id="path24" />
    <path
       d="m 31.438,83.652 0.31681,1.1875 1.4293,-0.49112 3.6514,0.51169 -0.44489,-1.2193 -2.9462,-0.83689 z"
       fill="#db6b9d"
       fill-opacity="0.60229"
       style="paint-order:stroke markers fill"
       id="path25" />
    <path
       d="m 56.566,92.872 c 1.8033,-7.2354 6.3466,-8.7242 11.273,-8.135 4.9264,0.5892 11.48,6.3488 9.0495,12.908 3.2702,-3.4839 2.7934,-7.6316 6.4665,-8.6972 -2.3353,-0.20397 -2.9633,-0.17096 -4.7873,0.17962 2.3929,-1.1682 2.5536,-1.5253 4.4663,-1.5874 -4.4132,-0.48441 -7.8352,-4.479 -13.561,-4.677 -5.726,-0.19808 -14.535,2.1151 -12.907,10.009 z"
       fill="#5d5205"
       style="paint-order:stroke markers fill"
       id="path26" />
    <rect
       x="66.793999"
       y="87.242996"
       width="2.7669001"
       height="3.1054001"
       fill="#ffffff"
       fill-opacity="0.78424"
       style="paint-order:stroke markers fill"
       id="rect26" />
  </g>
  <rect
     x="16.086937"
     y="58.778843"
     width="1.5354568"
     height="2.4274061"
     fill="#ffffff"
     fill-opacity="0.78424"
     stroke-width="1.86428"
     style="paint-order:stroke markers fill"
     id="rect27" />
  <path
     d="m 19.721591,59.165773 c -2.547643,-1.573742 -3.885964,-2.224485 -6.590109,-1.392081 -2.704145,0.832325 -0.633286,8.621848 -0.708414,8.196619 -0.0752,-0.425691 -1.582945,-4.548162 -2.8665112,-5.2648 0.6460612,-0.315357 0.5785712,-0.375578 1.5268672,-0.752782 -0.449818,-0.338112 -0.82212,-0.542402 -1.9426932,-0.890403 0.8445343,-0.440535 2.6488942,-2.788617 4.7247172,-2.86866 2.075907,-0.08004 5.28887,0.533663 5.856242,2.972232 z"
     fill="#5d5205"
     stroke-width="2.27429"
     style="paint-order:stroke markers fill"
     id="path27" />
</svg>
