<?xml version="1.0" encoding="UTF-8"?>
<svg width="600" height="800" version="1.1" viewBox="0 0 159 212" xml:space="preserve" xmlns="http://www.w3.org/2000/svg" xmlns:cc="http://creativecommons.org/ns#" xmlns:dc="http://purl.org/dc/elements/1.1/" xmlns:rdf="http://www.w3.org/1999/02/22-rdf-syntax-ns#"><metadata><rdf:RDF><cc:Work rdf:about=""><dc:format>image/svg+xml</dc:format><dc:type rdf:resource="http://purl.org/dc/dcmitype/StillImage"/></cc:Work></rdf:RDF></metadata><g fill="none" stroke-linecap="round" stroke-linejoin="round"><circle r="0" stroke="#c53822" stroke-width="2.26" style="paint-order:stroke markers fill"/><g stroke="#924019"><circle r="0" stroke-width="1.29" style="paint-order:stroke markers fill"/><circle transform="scale(1,-1)" r="0" stroke-width="3.6" style="paint-order:stroke markers fill"/><circle transform="scale(1,-1)" r="0" stroke-width="3.6" style="paint-order:stroke markers fill"/></g><circle transform="scale(1,-1)" r="0" stroke="#4d4320" stroke-width="4.38" style="paint-order:stroke markers fill"/><circle transform="scale(1,-1)" r="0" stroke="#4d4320" stroke-width="3.52" style="paint-order:stroke markers fill"/></g><g stroke-width="2.83"><path d="m102 23.7s2.48-11.6 15.1-8.78c12.6 2.87 31.2 29.9 33.6 49.7 2.41 19.8-20.2 40.6-20.7 56.2-0.526 15.6 9.49 32.3 9.49 32.3s-32.8-13.6-39.4-29.1c-6.63-15.6 6.76-52.1 6.76-52.1l12.6-27.6-14.9-11.6z" fill="#443c04" style="paint-order:stroke markers fill"/><path d="m86.7 131 25.4 11.3 3.69 10.7-26.2 5.61 3.84-15.3h-38.4l-4.5 14.9-14.8-8.91 1.73-6.84 23.2-12.1z" fill="#f0ebc7" style="paint-order:stroke markers fill"/><path d="m57.5 127c1.13 9.55 0.637 17.8-14.2 21.4 1.23 8.89 9.44 16.6 21.4 18.3 11.9 1.67 34.6-4.05 40-18.4-20.1-3.03-20.7-21.7-14.8-43.1-13.6 7.04-25.4 14.2-32.4 21.8z" fill="#ecb98a" style="paint-order:stroke markers fill"/><path d="m58.3 129-1.12 9.87 25.6-15.7-0.494-9.52z" fill="#9a9d95" fill-opacity=".447" style="paint-order:stroke markers fill"/><path d="m12.1 188-6.72 24.2 23.1 0.167 3.03-14.8z" fill="#6f6f6f" style="paint-order:stroke markers fill"/><path d="m137 188-24.1 4.96 8.37 18.4 23.4 0.0407z" fill="#6f6f6f" style="paint-order:stroke markers fill"/><path d="m54.4 142c-1e-6 0-35.3 14-39 19.8-3.67 5.85-8.68 27.9-8.68 27.9s13.6 8.82 20.5 7.41c0.401 3.87 3.07 8.62 4.75 14.2l83.6 0.104c-0.204-2.13-0.741-11.8-1.11-17.7l6.82-0.234 19.5-7.65s-8.25-26.8-13.2-32.6c-4.95-5.72-34.3-10.3-34.3-10.3l-29 15.7z" fill="#f0ebc7" style="paint-order:stroke markers fill"/><path d="m106 170 3.99 23.7-3.12 18.4h7.26l1.48-6.59-3.37-18.3-3.45-16.2z" fill="#b1a381" fill-opacity=".709" style="paint-order:stroke markers fill"/></g><path d="m69.6 18c16.2-0.402 30.7 1.71 41.5 16.1 10.8 14.4 9.35 48.4 2.58 63.7-6.76 15.3-26.6 21.7-26.6 21.7l-32.9 1.61s-20.4-13.5-26.9-28.1c-6.49-14.6-15.3-38.8-5.94-53.5s32-21.1 48.2-21.5z" fill="#443c04" stroke-width="2.83" style="paint-order:stroke markers fill"/><path d="m28.7 93.4c-0.906 4.67-0.163 19 2.29 22.9 2.45 3.89 12 17.8 18.9 18.5 6.83 0.711 29.4-9.4 33.3-13.4s23.1-26.9 23.1-26.9 2.72-8.92 5.78-23.1c3.05-14.2-13.2-49.9-46.8-50.9-33.5-0.922-40.6 24.7-40.8 38.5-0.264 13.8 1.44 18.1 4.28 34.3z" fill="#ecb98a" stroke-width="2.83" style="paint-order:stroke markers fill"/><path d="m71.8 91c0 4.62-3.03 8.37-6.77 8.37s-6.77-3.75-6.77-8.37 3.03-7.33 6.77-7.33 6.77 2.7 6.77 7.33z" fill="#433106" stroke-width="2.97" style="paint-order:stroke markers fill"/><ellipse transform="matrix(.984 -.18 .155 .988 0 0)" cx="20.2" cy="94.9" rx="4.16" ry="7.17" fill="#433106" stroke-width="2.94" style="paint-order:stroke markers fill"/><path d="m108 84.3c-3.75 6.65-11.9 14.5-14.7 24 5.36 5.64 13.7-3.94 16.3-8.92 2.61-4.98 10.5-15.1-1.59-15z" fill="#ecc58a" stroke-width="2.83" style="paint-order:stroke markers fill"/><g fill="#443c04" stroke-width="2.83"><path d="m65.2 17.7c-18-2.51-35 10.5-42.9 23-7.93 12.5-2.16 39.9-2.16 39.9l12.2-24.7 6.21 24 1.57-17.6 13.4 23.9 0.433-29.1 14 18.8-0.228-12.6 12.7 18.8 5.18-6.92 3.43 23.1 3.54-3.84 0.247 5.47 13.7-11.1s11.9-9.41 11-30.3-34.3-38.3-52.3-40.8z" style="paint-order:stroke markers fill"/><path d="m55.4 79.7c4.14-1.88 5.78-4.43 12.6-5.61 4.52 0.0671 8.76 2.55 13.1 3.85l-13.6-0.446z" fill-opacity=".709" style="paint-order:stroke markers fill"/><path d="m26.2 78.9 3.83-1.76 10.7 2.96c-3.89-3.17-7.01-5.13-11-6.11-2.37 1.24-2.42 3.26-3.56 4.91z" fill-opacity=".709" style="paint-order:stroke markers fill"/></g><g transform="translate(-1.8)" stroke-width="2.83"><path d="m42.3 117s2.57 2.09 4.96 2.29c2.4 0.199 8.64-2.37 8.64-2.37l1.93 0.293-3.74 1.52s-4.61 2.13-6.53 2.02c-1.92-0.107-4.31-1.88-4.31-1.88z" fill="#f1400f" fill-opacity=".507" style="paint-order:stroke markers fill"/><path d="m45.6 122s1.71 1.28 2.52 0.628c-0.221 1.01 1.28 2.48 0.147 2.83-1.17-1.45-2.67-3.46-2.67-3.46z" fill="#f8eb90" fill-opacity=".448" style="paint-order:stroke markers fill"/><path d="m45.1 98.3-1.4 7.99 2.99 4.17-1.44 1.97-4.79-3.1z" fill="#443c04" fill-opacity=".459" style="paint-order:stroke markers fill"/></g><ellipse cx="78.1" cy="106" rx="8.01" ry="3.82" fill="#f4884c" fill-opacity=".627" stroke-width="2.2" style="paint-order:stroke markers fill"/><g stroke-width="2.83"><path d="m58.9 87 0.413 0.425 4.44-1.91 5.14-0.396-0.338-1.03-5.34 0.0349z" fill="#db6b9d" fill-opacity=".602" style="paint-order:stroke markers fill"/><path d="m31.4 83.7 0.317 1.19 1.43-0.491 3.65 0.512-0.445-1.22-2.95-0.837z" fill="#db6b9d" fill-opacity=".602" style="paint-order:stroke markers fill"/><path d="m56.6 92.9c1.8-7.24 6.35-8.72 11.3-8.14s11.5 6.35 9.05 12.9c3.27-3.48 2.79-7.63 6.47-8.7-2.34-0.204-2.96-0.171-4.79 0.18 2.39-1.17 2.55-1.53 4.47-1.59-4.41-0.484-7.84-4.48-13.6-4.68-5.73-0.198-14.5 2.12-12.9 10z" fill="#5d5205" style="paint-order:stroke markers fill"/><rect x="66.8" y="87.2" width="2.77" height="3.11" fill="#fff" fill-opacity=".784" style="paint-order:stroke markers fill"/></g><rect x="35.2" y="85.6" width="1.86" height="3.11" fill="#fff" fill-opacity=".784" stroke-width="2.32" style="paint-order:stroke markers fill"/><path d="m39.6 86.1c-3.08-2.01-4.71-2.85-7.98-1.78-3.27 1.06-0.767 11-0.858 10.5-0.091-0.545-1.92-5.82-3.47-6.74 0.782-0.403 0.701-0.48 1.85-0.963-0.545-0.433-0.995-0.694-2.35-1.14 1.02-0.564 3.21-3.57 5.72-3.67 2.51-0.102 6.4 0.683 7.09 3.8z" fill="#5d5205" stroke-width="2.83" style="paint-order:stroke markers fill"/></svg>
