<?xml version="1.0" encoding="UTF-8"?>
<svg width="100mm" height="100mm" version="1.1" viewBox="0 0 100 100" xmlns="http://www.w3.org/2000/svg">
 <g transform="matrix(1.55 0 0 1.55 -14.3 -9.31)" stroke-width=".265">
  <path d="m11.5 38.1c-1.16 8.94 27.3 22.4 27.3 22.4l13.8 2.01s20.7-6.89 19.1-14.4c-0.514-2.44-7.37 0.321-7.37 0.321s-39.5-14.4-52.9-10.4z" fill="#d4aa00"/>
  <path d="m19.4 14.5c-3.22 0.986-7.75 3.08-8.78 6.59-1.15 3.89 1.59 8.83 4.21 11.4 2.95-2.09 4.49-4.88 5.3-7.96 0.855-3.25 0.82-6.31-0.727-10z" fill="#cb920c"/>
  <path d="m15.1 17.1 2.73 8.71-6.58-0.336-0.136-5.41z"/>
  <path d="m62.6 25.1c2.82 1.5 4.62 8.4 4.62 8.4s7.98 4.81 3.84 15c-8.98 12.5-34.4 7.53-48.8 1.88-6.21-2.45-10.4-12.8-10.4-12.8l2.88-5.81 5.19-7.98s-0.526-7.2-0.807-9.57c2.88-4.79 9.33 1.31 12.5 5.21 8.9 1.9 11.7 6.27 18.1 6.88 3.66-1.79 8.99-3.18 12.8-1.17z" fill="#409f34"/>
  <path d="m59.7 28.3c4.97-7e-3 6.37 4.68 6.48 8.42 0.11 3.74-3.23 8.33-7.03 8.81-3.81 0.48-8.97-1.59-9.38-7.07s4.96-10.2 9.93-10.2z" fill="#c1aa0b"/>
  <path d="m51.3 37.4 6.69-6.35 8.06 4.71-7.45 7.6z"/>
  <g fill="#fff">
   <ellipse cx="61.7" cy="32.8" rx="2.02" ry="2.27"/>
   <ellipse cx="16.7" cy="18.9" rx="2.02" ry="2.27"/>
   <path d="m30.4 46.7-1.9 2.52 2.15-1.01z"/>
   <path d="m25.7 45.2-1.34 2.3-0.0733-2.12z"/>
  </g>
 </g>
</svg>
