<?xml version="1.0" encoding="UTF-8" standalone="no"?>
<svg
   width="600"
   height="800"
   version="1.1"
   viewBox="0 0 159 212"
   xml:space="preserve"
   id="svg27"
   sodipodi:docname="peace.svg"
   inkscape:version="1.3.2 (1:1.3.2+202404261509+091e20ef0f)"
   xmlns:inkscape="http://www.inkscape.org/namespaces/inkscape"
   xmlns:sodipodi="http://sodipodi.sourceforge.net/DTD/sodipodi-0.dtd"
   xmlns="http://www.w3.org/2000/svg"
   xmlns:svg="http://www.w3.org/2000/svg"
   xmlns:rdf="http://www.w3.org/1999/02/22-rdf-syntax-ns#"
   xmlns:cc="http://creativecommons.org/ns#"
   xmlns:dc="http://purl.org/dc/elements/1.1/"><defs
     id="defs27" /><sodipodi:namedview
     id="namedview27"
     pagecolor="#ffffff"
     bordercolor="#000000"
     borderopacity="0.25"
     inkscape:showpageshadow="2"
     inkscape:pageopacity="0.0"
     inkscape:pagecheckerboard="0"
     inkscape:deskcolor="#d1d1d1"
     inkscape:zoom="0.99125"
     inkscape:cx="301.63934"
     inkscape:cy="334.93064"
     inkscape:window-width="1920"
     inkscape:window-height="1011"
     inkscape:window-x="0"
     inkscape:window-y="0"
     inkscape:window-maximized="1"
     inkscape:current-layer="svg27" /><metadata
     id="metadata1"><rdf:RDF><cc:Work
         rdf:about=""><dc:format>image/svg+xml</dc:format><dc:type
           rdf:resource="http://purl.org/dc/dcmitype/StillImage" /></cc:Work></rdf:RDF></metadata><path
     style="fill:#3a6d44;fill-opacity:1;stroke-width:0.265"
     d="m 48.477679,133.65367 c 0,0 -2.601321,2.63502 -0.07415,7.14715 5.795205,9.46041 -6.993176,8.85891 -7.246352,2.18805 1.504715,-8.7969 -2.019666,-15.64535 -2.019666,-15.64535 0,0 -9.229822,-1.65952 -14.268186,7.40039 -6.810305,8.70652 -15.4600547,-3.51375 -4.843435,-5.26011 3.807522,-0.75125 8.348894,-5.43881 8.543368,-7.14584 -4.367602,-3.04051 -10.774433,-3.19153 -15.311437,-2.98694 -9.8494865,1.15877 -9.3574702,-8.11886 -0.504393,-6.37228 10.030164,3.66399 17.044702,-0.89731 17.044702,-0.89731 l 13.712884,0.32191 c 0,0 -9.800601,-2.89032 -8.939416,-7.21242 1.163919,-2.77294 19.50558,-3.82264 19.50558,-3.82264 0,0 11.293942,-7.037224 17.626636,-7.088926 4.747027,-0.03876 13.298038,5.097462 13.298038,5.097462"
     id="path10"
     sodipodi:nodetypes="ccccccccccccccc" /><path
     style="fill:#459757;fill-opacity:1;stroke-width:0.265"
     d="m 57.606895,106.4801 c 0,0 28.005258,-13.611745 41.953462,-10.09832 32.158973,8.10055 40.091193,24.33177 40.387023,37.47553 l -18.53413,19.27662 -67.652488,-22.13381 z"
     id="path8"
     sodipodi:nodetypes="cscccc" /><path
     style="fill:#d4aa00;fill-opacity:1;stroke-width:0.265"
     d="m 103.66548,142.65548 c 0.61926,-0.49447 11.0716,-6.15298 11.0716,-6.15298 l 7.27351,3.0295 3.4728,-1.79827 7.37637,6.05168 c 0,0 -9.91923,9.49054 -10.60794,9.35687 -0.68871,-0.13367 -12.11642,-0.2924 -12.7242,-1.71003 -0.60778,-1.41763 -5.86214,-8.77677 -5.86214,-8.77677 z"
     id="path17" /><path
     style="fill:#3a6d44;fill-opacity:1;stroke-width:0.265"
     d="m 78.58963,147.56092 c 0,0 16.561276,7.59409 21.65265,7.75558 -0.664705,3.18971 -5.709156,9.99076 -5.709156,9.99076 0,0 -1.594139,-4.36965 -2.570007,-9.42684 2.292264,-4.40936 -6.687419,-6.64865 -4.910267,0.34984 1.476454,4.6707 1.57897,7.62543 1.57897,7.62543 l -6.137315,1.14925 -19.218922,-8.17499 c -3.226449,-1.12754 -7.039718,5.81714 -0.253454,6.76781 3.980188,0.55757 13.974749,3.67861 13.428265,8.14183 -0.495082,4.04342 -11.815316,2.37523 -15.514551,1.68497 -9.321093,-1.73929 -8.413162,7.70996 0.05561,7.93245 6.588847,-2.39897 12.554538,-1.87091 17.098223,1.72622 5.125133,4.05745 4.560124,9.74741 4.327293,13.92696 -3.27689,8.2335 8.95876,9.87862 6.483496,1.59438 -2.670657,-9.53905 3.254019,-14.49166 3.254019,-14.49166 l 14.430846,-8.8141 c 0,0 12.8882,-13.95632 13.50428,-23.34833 -4.71364,-7.26756 -24.610354,-15.58582 -24.610354,-15.58582 z"
     id="path7"
     sodipodi:nodetypes="ccccccccssscsccccccc" /><path
     style="fill:#3a6d44;fill-opacity:1;stroke-width:0.265"
     d="m 139.33542,159.3621 c 12.19525,8.58991 -4.92814,22.23217 -9.08869,30.40543 -3.28244,6.44823 -11.46704,3.35667 -8.83068,-1.39011 2.90745,-2.12308 3.09367,-2.15822 4.60502,-3.7448 -1.72336,0.50326 -8.77666,5.19161 -10.00291,7.40117 -4.35545,3.45263 -13.3691,-0.33512 -6.17046,-4.9812 6.93056,-2.78673 9.69911,-4.84634 8.44261,-8.36737 -0.90189,-2.52737 -3.61181,-1.2935 -8.46976,-0.24805 -6.64577,-0.0743 -5.12514,-5.39385 0,-6.0945 4.0659,0.45985 8.07548,-1.45105 8.07548,-1.45105 0,0 -0.12663,-2.59622 -2.70259,-4.1495 -4.47266,-2.2391 2.42004,-7.40873 5.06568,-3.2444 3.7948,0.49602 0.19799,3.44 4.72502,1.80724 3.7517,-1.35313 13.50886,-6.26296 14.35128,-5.94286 z"
     id="path9"
     sodipodi:nodetypes="csccccscccccsc" /><g
     fill="none"
     stroke-linecap="round"
     stroke-linejoin="round"
     id="g6"><circle
       r="0"
       stroke="#c53822"
       stroke-width="2.26"
       style="paint-order:stroke markers fill"
       id="circle1" /><g
       stroke="#924019"
       id="g4"><circle
         r="0"
         stroke-width="1.29"
         style="paint-order:stroke markers fill"
         id="circle2" /><circle
         transform="scale(1,-1)"
         r="0"
         stroke-width="3.6"
         style="paint-order:stroke markers fill"
         id="circle3" /><circle
         transform="scale(1,-1)"
         r="0"
         stroke-width="3.6"
         style="paint-order:stroke markers fill"
         id="circle4" /></g><circle
       transform="scale(1,-1)"
       r="0"
       stroke="#4d4320"
       stroke-width="4.38"
       style="paint-order:stroke markers fill"
       id="circle5" /><circle
       transform="scale(1,-1)"
       r="0"
       stroke="#4d4320"
       stroke-width="3.52"
       style="paint-order:stroke markers fill"
       id="circle6" /></g><path
     style="fill:#d4aa00;fill-opacity:1;stroke-width:0.265"
     d="m 37.317833,123.65769 c -1.166452,8.9512 27.322381,22.44762 27.322381,22.44762 l 13.850468,2.01392 c 0,0 20.727872,-6.90385 19.14713,-14.41543 -0.514815,-2.44637 -7.386291,0.32112 -7.386291,0.32112 0,0 -39.579307,-14.42634 -52.933688,-10.36723 z"
     id="path3"
     sodipodi:nodetypes="cccscc" /><path
     style="fill:#cb920c;fill-opacity:1;stroke-width:0.265"
     d="m 45.2435,99.978329 c -3.22076,0.987461 -7.759894,3.087971 -8.796609,6.605151 -1.148686,3.89707 1.588351,8.83978 4.218949,11.43502 2.951006,-2.09045 4.493243,-4.88891 5.306055,-7.97736 0.855935,-3.2523 0.821267,-6.32016 -0.728395,-10.062811 z"
     id="path4"
     sodipodi:nodetypes="cscsc" /><path
     style="fill:#000000;fill-opacity:1;stroke-width:0.265"
     d="m 40.925301,102.67555 2.730351,8.71952 -6.588374,-0.33631 -0.135958,-5.42233 z"
     id="path6"
     sodipodi:nodetypes="ccccc" /><path
     style="fill:#409f34;fill-opacity:1;stroke-width:0.265"
     d="m 88.468911,110.59671 c 2.827505,1.50234 4.627266,8.41753 4.627266,8.41753 0,0 7.991843,4.81948 3.844567,15.00859 -8.992617,12.55037 -34.464882,7.54163 -48.829611,1.88182 C 41.888016,133.45269 37.74286,123.05096 37.74286,123.05096 l 2.882252,-5.81568 5.195362,-7.99354 c 0,0 -0.526595,-7.20979 -0.808046,-9.58166 2.88475,-4.800932 9.349444,1.30734 12.520821,5.21703 8.918186,1.90195 11.706132,6.2821 18.148261,6.8913 3.660836,-1.79731 9.007509,-3.18008 12.787401,-1.1717 z"
     id="path2"
     sodipodi:nodetypes="sccsccccccs" /><path
     style="fill:#c1aa0b;fill-opacity:1;stroke-width:0.265"
     d="m 85.617988,113.86221 c 4.974701,-0.007 6.382291,4.68969 6.492376,8.43059 0.110085,3.74089 -3.232834,8.3474 -7.04533,8.82846 -3.812496,0.48106 -8.979481,-1.5973 -9.389766,-7.0824 -0.410285,-5.4851 4.968019,-10.16997 9.94272,-10.17665 z"
     id="path1"
     sodipodi:nodetypes="zzzzz" /><path
     style="fill:#000000;fill-opacity:1;stroke-width:0.265"
     d="m 77.126835,122.96062 6.704296,-6.35565 8.068807,4.71872 -7.459478,7.60812 z"
     id="path5"
     sodipodi:nodetypes="ccccc" /><path
     style="fill:#437e4f;fill-opacity:1;stroke-width:0.265"
     d="m 146.17346,133.19836 c 7.91453,3.34554 5.90637,17.52954 2.67078,25.48965 -3.25562,8.0094 -13.56938,17.99123 -21.48948,14.52403 -8.28445,-3.62671 -8.00741,-18.67212 -4.0858,-26.82112 3.82066,-7.93923 15.5007,-16.32222 22.9045,-13.19256 z"
     id="path16"
     sodipodi:nodetypes="sssss" /><ellipse
     style="fill:#ffffff;fill-opacity:1;stroke-width:0.265"
     id="path18"
     cx="87.573433"
     cy="118.34825"
     rx="2.0243635"
     ry="2.2692506" /><ellipse
     style="fill:#ffffff;fill-opacity:1;stroke-width:0.265"
     id="path18-3"
     cx="42.482391"
     cy="104.41515"
     rx="2.0243635"
     ry="2.2692506" /><path
     style="fill:#ffffff;fill-opacity:1;stroke-width:0.265"
     d="m 56.196062,132.27443 -1.906098,2.52641 2.155945,-1.01349 z"
     id="path19" /><path
     style="fill:#ffffff;fill-opacity:1;stroke-width:0.265"
     d="m 51.487603,130.77979 -1.343746,2.30449 -0.07336,-2.1254 z"
     id="path20" /></svg>
